<!--?xml version="1.0" encoding="utf-8"?-->
<!-- Generator: Adobe Illustrator 25.4.1, SVG Export Plug-In . SVG Version: 6.00 Build 0)  -->
<svg version="1.1" id="Layer_1" xmlns="http://www.w3.org/2000/svg" xmlns:xlink="http://www.w3.org/1999/xlink" x="0px" y="0px" viewBox="0 0 595.28 841.89" style="" xml:space="preserve">
<style type="text/css">
	.st0{opacity:0.5;}
	.st1{fill:none;stroke:#FFFFFF;stroke-miterlimit:10;}
	.st2{fill:none;stroke:#FAFAFA;stroke-width:10;stroke-miterlimit:10;}
	.st3{fill:none;stroke:#FFFFFF;stroke-width:11;stroke-miterlimit:10;}
</style>
<g>
	<g class="st0">
		<path class="st1 vBOMasWr_0" d="M261.42,316.28c-8.41-26.35-14.14-53.17-17.26-80.14l-2.87,1.66c3.17,26.73,8.87,53.3,17.21,79.42
			c31.79,99.63,97.79,181.42,186.98,232.51l3.05-1.76C359.22,497.31,293.16,415.74,261.42,316.28z"></path>
		<path class="st1 vBOMasWr_1" d="M112.78,429.4c43.66,43.54,76.36,96.14,96.73,153.35l4.05,2.34c-20.76-59.89-54.82-114.95-100.78-160.08
			C112.78,425.01,112.78,429.4,112.78,429.4z"></path>
	</g>
	<g>
		<g>
			<path class="st2 vBOMasWr_2" d="M271.76,299.65h48.81l-49.8,85.32h127.86c4.64,0,7.59,4.96,5.37,9.04l-18.61,34.23
				c-2.05,3.76-5.98,6.1-10.27,6.1h-45.89l-61.44,104.09c-2.95,5-10.19,5.02-13.16,0.03l-21.54-36.13l40.28-70.16h-29.88
				l-25.13,43.74l-23.95-41.01c-2.86-4.91-2.89-10.97-0.08-15.9l63.63-111.34C260.79,302.7,266.05,299.65,271.76,299.65"></path>
		</g>
		<g>
			<path class="st2 vBOMasWr_3" d="M350.88,299.65h37.86c8.04,0,13.1,8.67,9.15,15.67l-30.36,53.73H309.5L350.88,299.65z"></path>
		</g>
	</g>
	<path class="st3 vBOMasWr_4" d="M482.5,502.24V339.65c0-15.44-8.23-29.7-21.6-37.42l-140.8-81.29c-13.37-7.72-29.84-7.72-43.2,0l-140.8,81.29
		c-13.37,7.72-21.6,21.98-21.6,37.42v162.58c0,15.44,8.23,29.7,21.6,37.42l140.8,81.29c13.37,7.72,29.84,7.72,43.2,0l140.8-81.29
		C474.27,531.93,482.5,517.67,482.5,502.24z"></path>
</g>
<style data-made-with="vivus-instant">.vBOMasWr_0{stroke-dasharray:781 783;stroke-dashoffset:782;animation:vBOMasWr_draw_0 4400ms ease-in 0ms infinite,vBOMasWr_fade 4400ms linear 0ms infinite;}.vBOMasWr_1{stroke-dasharray:383 385;stroke-dashoffset:384;animation:vBOMasWr_draw_1 4400ms ease-in 0ms infinite,vBOMasWr_fade 4400ms linear 0ms infinite;}.vBOMasWr_2{stroke-dasharray:935 937;stroke-dashoffset:936;animation:vBOMasWr_draw_2 4400ms ease-in 0ms infinite,vBOMasWr_fade 4400ms linear 0ms infinite;}.vBOMasWr_3{stroke-dasharray:261 263;stroke-dashoffset:262;animation:vBOMasWr_draw_3 4400ms ease-in 0ms infinite,vBOMasWr_fade 4400ms linear 0ms infinite;}.vBOMasWr_4{stroke-dasharray:1247 1249;stroke-dashoffset:1248;animation:vBOMasWr_draw_4 4400ms ease-in 0ms infinite,vBOMasWr_fade 4400ms linear 0ms infinite;}@keyframes vBOMasWr_draw{100%{stroke-dashoffset:0;}}@keyframes vBOMasWr_fade{0%{stroke-opacity:1;}90.9090909090909%{stroke-opacity:1;}100%{stroke-opacity:0;}}@keyframes vBOMasWr_draw_0{0%{stroke-dashoffset: 782}15.151515151515152%{ stroke-dashoffset: 0;}100%{ stroke-dashoffset: 0;}}@keyframes vBOMasWr_draw_1{1.893939393939394%{stroke-dashoffset: 384}17.045454545454547%{ stroke-dashoffset: 0;}100%{ stroke-dashoffset: 0;}}@keyframes vBOMasWr_draw_2{3.787878787878788%{stroke-dashoffset: 936}18.939393939393938%{ stroke-dashoffset: 0;}100%{ stroke-dashoffset: 0;}}@keyframes vBOMasWr_draw_3{5.681818181818182%{stroke-dashoffset: 262}20.833333333333336%{ stroke-dashoffset: 0;}100%{ stroke-dashoffset: 0;}}@keyframes vBOMasWr_draw_4{7.575757575757576%{stroke-dashoffset: 1248}22.727272727272727%{ stroke-dashoffset: 0;}100%{ stroke-dashoffset: 0;}}</style></svg>
