<!--?xml version="1.0" encoding="UTF-8"?-->

<svg xmlns="http://www.w3.org/2000/svg" version="1.1" width="1920px" height="662px" style="shape-rendering:geometricPrecision; text-rendering:geometricPrecision; image-rendering:optimizeQuality; fill-rule:evenodd; clip-rule:evenodd" xmlns:xlink="http://www.w3.org/1999/xlink">
<g><path style="opacity: 0.102; fill: rgb(255, 116, 55);" d="M 1782.5,-0.5 C 1784.5,-0.5 1786.5,-0.5 1788.5,-0.5C 1794.27,3.55851 1800.27,7.39184 1806.5,11C 1807.17,12 1807.83,13 1808.5,14C 1846.07,20.1433 1883.07,28.6433 1919.5,39.5C 1919.5,40.5 1919.5,41.5 1919.5,42.5C 1883.77,30.776 1847.27,22.1093 1810,16.5C 1801.61,20.9472 1793.11,25.2806 1784.5,29.5C 1782.57,28.8545 1781.4,27.5212 1781,25.5C 1780.83,21.5066 1781,17.5066 1781.5,13.5C 1696,6.03283 1616,23.5328 1541.5,66C 1487.96,98.0355 1438.46,135.536 1393,178.5C 1391.96,187.822 1389.46,196.655 1385.5,205C 1380.45,204.8 1376.45,202.467 1373.5,198C 1372.83,197.333 1372.17,197.333 1371.5,198C 1306.89,260.611 1242.89,323.944 1179.5,388C 1159.64,407.532 1139.47,426.699 1119,445.5C 1120.38,449.978 1120.71,454.644 1120,459.5C 1116.34,466.07 1110.84,468.237 1103.5,466C 1102.07,465.535 1100.9,464.701 1100,463.5C 1058.79,502.721 1013.63,536.554 964.5,565C 936.223,580.204 906.223,590.204 874.5,595C 907.71,615.771 942.71,633.105 979.5,647C 1035.94,665.759 1091.27,663.259 1145.5,639.5C 1140.12,628.258 1143.78,624.258 1156.5,627.5C 1160.5,627.667 1164.5,627.833 1168.5,628C 1170.37,629.564 1172.37,629.564 1174.5,628C 1213.18,608.341 1249.84,585.674 1284.5,560C 1343.49,515.848 1401.15,470.015 1457.5,422.5C 1452.51,408.326 1457.51,401.826 1472.5,403C 1474.3,403.972 1475.97,405.139 1477.5,406.5C 1524.29,368.61 1571.62,331.443 1619.5,295C 1644.35,277.078 1669.68,259.911 1695.5,243.5C 1693.67,241.025 1692.34,238.359 1691.5,235.5C 1691.57,234.228 1691.9,233.062 1692.5,232C 1701.73,229.417 1711.06,228.583 1720.5,229.5C 1768.59,201.803 1819.92,182.803 1874.5,172.5C 1889.37,169.613 1904.37,167.947 1919.5,167.5C 1919.5,168.167 1919.5,168.833 1919.5,169.5C 1868.36,173.036 1819.36,185.203 1772.5,206C 1755.22,213.973 1738.22,222.473 1721.5,231.5C 1718.5,240.006 1714.84,248.172 1710.5,256C 1709.17,256.667 1707.83,256.667 1706.5,256C 1703.14,252.779 1700.14,249.279 1697.5,245.5C 1652.08,273.875 1608.41,304.708 1566.5,338C 1537.17,361.667 1507.83,385.333 1478.5,409C 1481,414.839 1480,420.173 1475.5,425C 1470.14,428.49 1464.97,428.323 1460,424.5C 1402.7,471.477 1344.53,517.31 1285.5,562C 1249.97,588.276 1212.3,611.276 1172.5,631C 1169.04,639.133 1164.71,646.799 1159.5,654C 1157.83,654.667 1156.17,654.667 1154.5,654C 1151.7,650.217 1149.03,646.383 1146.5,642.5C 1121.6,652.476 1095.93,658.81 1069.5,661.5C 1059.17,661.5 1048.83,661.5 1038.5,661.5C 998.327,657.115 960.327,645.282 924.5,626C 906.174,616.172 888.174,605.839 870.5,595C 845.099,596.675 820.099,594.175 795.5,587.5C 794.088,588.806 792.421,589.64 790.5,590C 782.859,591.553 775.192,592.553 767.5,593C 766.196,592.196 765.529,591.029 765.5,589.5C 766.301,586.432 767.301,583.432 768.5,580.5C 736.973,567.237 706.307,552.07 676.5,535C 620.667,501.585 565,467.918 509.5,434C 467.901,409.28 425.734,385.447 383,362.5C 374.186,363.266 365.353,362.766 356.5,361C 353.662,356.847 354.328,353.18 358.5,350C 292.106,314.538 224.106,282.538 154.5,254C 143.577,249.803 132.577,245.803 121.5,242C 79.1015,241.646 38.4349,249.813 -0.5,266.5C -0.5,265.833 -0.5,265.167 -0.5,264.5C 35.5799,249.231 73.2465,240.731 112.5,239C 75.6296,226.532 37.9629,217.366 -0.5,211.5C -0.5,210.833 -0.5,210.167 -0.5,209.5C 40.4169,215.563 80.4169,225.396 119.5,239C 131.845,239.271 144.179,239.771 156.5,240.5C 158.167,240.167 159.833,239.833 161.5,239.5C 164.928,232.123 170.594,229.623 178.5,232C 183.523,234.215 185.856,238.048 185.5,243.5C 234.23,250.683 281.563,263.183 327.5,281C 383.862,304.013 438.862,330.013 492.5,359C 560.059,395.274 626.059,433.94 690.5,475C 749.996,514.249 809.662,553.249 869.5,592C 888.729,590.861 907.396,586.861 925.5,580C 954.616,568.445 981.95,553.778 1007.5,536C 1039.28,513.227 1069.62,488.56 1098.5,462C 1095.11,455.221 1096.11,449.221 1101.5,444C 1106.58,441.908 1111.58,442.074 1116.5,444.5C 1191.9,372.6 1266.23,299.433 1339.5,225C 1349.67,215.5 1359.83,206 1370,196.5C 1370.67,195.833 1370.67,195.167 1370,194.5C 1367.63,192.461 1365.63,190.128 1364,187.5C 1363.29,185.633 1363.79,184.133 1365.5,183C 1374.73,179.923 1384.06,177.257 1393.5,175C 1437.7,132.749 1486.04,96.0822 1538.5,65C 1613.85,21.6954 1694.85,3.8621 1781.5,11.5C 1781.31,7.43378 1781.64,3.43378 1782.5,-0.5 Z M 127.5,242.5 C 138.675,241.36 150.008,241.36 161.5,242.5C 162.696,254.442 169.03,258.275 180.5,254C 183.596,251.971 185.262,249.138 185.5,245.5C 236.731,253.225 286.398,266.725 334.5,286C 387.989,308.578 440.322,333.578 491.5,361C 543.982,389.403 595.649,419.069 646.5,450C 720.174,497.169 793.508,544.835 866.5,593C 843.124,594.39 820.124,592.057 797.5,586C 791.684,579.843 786.184,573.343 781,566.5C 778.577,564.006 776.244,564.006 774,566.5C 772.333,570.167 770.667,573.833 769,577.5C 726.558,559.696 685.725,538.863 646.5,515C 593.833,483 541.167,451 488.5,419C 454.156,399.16 419.489,379.826 384.5,361C 381.617,352.362 377.951,344.029 373.5,336C 372.167,335.333 370.833,335.333 369.5,336C 366.039,339.78 362.705,343.614 359.5,347.5C 292.856,312.677 224.856,280.844 155.5,252C 146.243,248.526 136.91,245.359 127.5,242.5 Z"></path></g>
</svg>
